<svg id="visual" viewBox="0 0 900 600" width="900" height="600" xmlns="http://www.w3.org/2000/svg" xmlns:xlink="http://www.w3.org/1999/xlink" version="1.1"><rect x="0" y="0" width="900" height="600" fill="#001220"></rect><path d="M0 456L21.5 454.5C43 453 86 450 128.8 459.2C171.7 468.3 214.3 489.7 257.2 493.8C300 498 343 485 385.8 478.2C428.7 471.3 471.3 470.7 514.2 477C557 483.3 600 496.7 642.8 493.3C685.7 490 728.3 470 771.2 465.5C814 461 857 472 878.5 477.5L900 483L900 601L878.5 601C857 601 814 601 771.2 601C728.3 601 685.7 601 642.8 601C600 601 557 601 514.2 601C471.3 601 428.7 601 385.8 601C343 601 300 601 257.2 601C214.3 601 171.7 601 128.8 601C86 601 43 601 21.5 601L0 601Z" fill="#fa7268"></path><path d="M0 502L21.5 501C43 500 86 498 128.8 495.8C171.7 493.7 214.3 491.3 257.2 487C300 482.7 343 476.3 385.8 483.3C428.7 490.3 471.3 510.7 514.2 515C557 519.3 600 507.7 642.8 506.3C685.7 505 728.3 514 771.2 516.3C814 518.7 857 514.3 878.5 512.2L900 510L900 601L878.5 601C857 601 814 601 771.2 601C728.3 601 685.7 601 642.8 601C600 601 557 601 514.2 601C471.3 601 428.7 601 385.8 601C343 601 300 601 257.2 601C214.3 601 171.7 601 128.8 601C86 601 43 601 21.5 601L0 601Z" fill="#eb5967"></path><path d="M0 537L21.5 533.8C43 530.7 86 524.3 128.8 526.7C171.7 529 214.3 540 257.2 537.5C300 535 343 519 385.8 521C428.7 523 471.3 543 514.2 550.7C557 558.3 600 553.7 642.8 553.5C685.7 553.3 728.3 557.7 771.2 555.2C814 552.7 857 543.3 878.5 538.7L900 534L900 601L878.5 601C857 601 814 601 771.2 601C728.3 601 685.7 601 642.8 601C600 601 557 601 514.2 601C471.3 601 428.7 601 385.8 601C343 601 300 601 257.2 601C214.3 601 171.7 601 128.8 601C86 601 43 601 21.5 601L0 601Z" fill="#da3f67"></path><path d="M0 535L21.5 544.3C43 553.7 86 572.3 128.8 572.7C171.7 573 214.3 555 257.2 548.5C300 542 343 547 385.8 548.2C428.7 549.3 471.3 546.7 514.2 548.3C557 550 600 556 642.8 558.7C685.7 561.3 728.3 560.7 771.2 558.2C814 555.7 857 551.3 878.5 549.2L900 547L900 601L878.5 601C857 601 814 601 771.2 601C728.3 601 685.7 601 642.8 601C600 601 557 601 514.2 601C471.3 601 428.7 601 385.8 601C343 601 300 601 257.2 601C214.3 601 171.7 601 128.8 601C86 601 43 601 21.5 601L0 601Z" fill="#c62368"></path></svg>