<svg id="visual" viewBox="0 0 900 600" width="900" height="600" xmlns="http://www.w3.org/2000/svg" xmlns:xlink="http://www.w3.org/1999/xlink" version="1.1"><rect x="0" y="0" width="900" height="600" fill="#001220"></rect><path d="M0 481L21.5 481.5C43 482 86 483 128.8 488.2C171.7 493.3 214.3 502.7 257.2 499C300 495.3 343 478.7 385.8 475.2C428.7 471.7 471.3 481.3 514.2 484C557 486.7 600 482.3 642.8 478.7C685.7 475 728.3 472 771.2 472.5C814 473 857 477 878.5 479L900 481L900 601L878.5 601C857 601 814 601 771.2 601C728.3 601 685.7 601 642.8 601C600 601 557 601 514.2 601C471.3 601 428.7 601 385.8 601C343 601 300 601 257.2 601C214.3 601 171.7 601 128.8 601C86 601 43 601 21.5 601L0 601Z" fill="#fa7268"></path><path d="M0 486L21.5 491C43 496 86 506 128.8 514C171.7 522 214.3 528 257.2 522.8C300 517.7 343 501.3 385.8 496.2C428.7 491 471.3 497 514.2 500.2C557 503.3 600 503.7 642.8 507.2C685.7 510.7 728.3 517.3 771.2 516.2C814 515 857 506 878.5 501.5L900 497L900 601L878.5 601C857 601 814 601 771.2 601C728.3 601 685.7 601 642.8 601C600 601 557 601 514.2 601C471.3 601 428.7 601 385.8 601C343 601 300 601 257.2 601C214.3 601 171.7 601 128.8 601C86 601 43 601 21.5 601L0 601Z" fill="#eb5967"></path><path d="M0 558L21.5 554.2C43 550.3 86 542.7 128.8 536.5C171.7 530.3 214.3 525.7 257.2 525.7C300 525.7 343 530.3 385.8 534.2C428.7 538 471.3 541 514.2 540.3C557 539.7 600 535.3 642.8 531.8C685.7 528.3 728.3 525.7 771.2 524.7C814 523.7 857 524.3 878.5 524.7L900 525L900 601L878.5 601C857 601 814 601 771.2 601C728.3 601 685.7 601 642.8 601C600 601 557 601 514.2 601C471.3 601 428.7 601 385.8 601C343 601 300 601 257.2 601C214.3 601 171.7 601 128.8 601C86 601 43 601 21.5 601L0 601Z" fill="#da3f67"></path><path d="M0 556L21.5 556.2C43 556.3 86 556.7 128.8 556.3C171.7 556 214.3 555 257.2 558C300 561 343 568 385.8 570.3C428.7 572.7 471.3 570.3 514.2 569C557 567.7 600 567.3 642.8 567.5C685.7 567.7 728.3 568.3 771.2 566.5C814 564.7 857 560.3 878.5 558.2L900 556L900 601L878.5 601C857 601 814 601 771.2 601C728.3 601 685.7 601 642.8 601C600 601 557 601 514.2 601C471.3 601 428.7 601 385.8 601C343 601 300 601 257.2 601C214.3 601 171.7 601 128.8 601C86 601 43 601 21.5 601L0 601Z" fill="#c62368"></path></svg>
